<?xml version="1.0" standalone="no"?>
<!DOCTYPE svg PUBLIC "-//W3C//DTD SVG 20010904//EN"
 "http://www.w3.org/TR/2001/REC-SVG-20010904/DTD/svg10.dtd">
<svg version="1.0" xmlns="http://www.w3.org/2000/svg"
 width="1500.000000pt" height="666.000000pt" viewBox="0 0 1500.000000 666.000000"
 preserveAspectRatio="xMidYMid meet">

<g transform="translate(0.000000,666.000000) scale(0.100000,-0.100000)"
fill="#000000" stroke="none">
<path d="M5215 5823 c-115 -174 -215 -322 -222 -328 -6 -7 -52 -15 -101 -18
-303 -22 -594 -132 -845 -319 -43 -32 -81 -58 -84 -58 -3 0 -3 20 0 45 16 112
148 308 349 519 l113 119 150 18 c83 10 187 18 231 19 74 0 82 -2 87 -21 5
-18 12 -20 59 -17 46 3 53 6 56 25 5 38 -26 90 -66 109 -47 22 -163 29 -267
16 -44 -6 -81 -10 -82 -8 -1 1 31 28 72 61 l73 59 -30 38 c-16 21 -34 40 -39
43 -9 6 -99 -62 -215 -164 -53 -46 -79 -62 -111 -67 -61 -9 -124 4 -130 27 -5
16 -15 19 -64 19 -53 0 -59 -2 -59 -20 0 -64 54 -121 126 -135 19 -3 34 -8 34
-12 0 -3 -37 -44 -82 -92 -242 -255 -364 -507 -309 -639 13 -31 12 -33 -51
-109 -98 -118 -155 -206 -219 -338 -133 -274 -187 -544 -176 -870 17 -476 186
-871 504 -1176 452 -434 1153 -559 1776 -319 195 76 428 234 564 386 221 246
355 529 430 909 28 142 25 454 -5 602 -62 305 -241 661 -429 855 l-45 46 103
0 c168 0 352 49 596 159 165 74 159 68 133 126 -12 26 -25 47 -29 47 -5 0 -51
-20 -102 -44 -122 -57 -266 -110 -387 -143 -114 -30 -256 -37 -310 -14 l-34
14 43 14 c106 37 170 109 177 202 4 50 1 61 -23 89 -35 42 -88 56 -160 43 -30
-6 -68 -17 -84 -25 -40 -21 -108 -101 -116 -137 -4 -16 -12 -29 -19 -29 -7 0
-39 -11 -72 -24 l-59 -24 -67 34 c-100 50 -202 89 -305 115 -82 21 -93 26 -93
46 0 59 -94 80 -197 43 -32 -11 -59 -20 -60 -20 -2 0 84 130 190 290 l194 290
-47 30 c-26 16 -49 30 -51 30 -2 0 -98 -143 -214 -317z m1072 -429 c6 -18 -48
-75 -84 -90 -45 -19 -83 -18 -83 3 0 27 49 82 83 92 40 12 79 10 84 -5z
m-1978 -1968 c55 -29 82 -101 58 -157 -22 -52 -51 -72 -110 -77 -46 -4 -57 -1
-85 23 -38 32 -54 82 -41 128 22 82 105 120 178 83z"/>
<path d="M9836 5479 c-267 -28 -552 -135 -771 -290 -111 -79 -271 -238 -349
-348 -363 -509 -418 -1280 -134 -1860 216 -441 599 -735 1098 -842 92 -20 134
-23 345 -23 213 0 252 2 344 22 322 71 562 194 750 386 l65 65 -40 35 -39 34
-90 -88 c-101 -99 -195 -163 -329 -225 -426 -199 -945 -192 -1364 19 -259 130
-498 370 -629 631 -84 166 -140 345 -168 533 -21 140 -21 394 -1 532 102 674
545 1164 1179 1302 87 19 133 22 317 23 189 0 227 -3 318 -23 260 -58 457
-152 627 -299 l71 -61 32 38 32 39 -63 56 c-291 262 -744 392 -1201 344z"/>
<path d="M480 5397 c0 -5 605 -1619 805 -2147 57 -151 133 -354 169 -450 100
-271 220 -584 229 -598 5 -8 34 -12 81 -12 l73 0 122 323 c68 177 176 462 241
632 65 171 135 353 155 405 20 52 74 194 120 315 46 121 154 405 240 630 86
226 193 505 236 620 44 116 86 227 94 248 l15 37 -58 0 -57 0 -52 -138 c-28
-75 -118 -310 -198 -522 -81 -212 -196 -513 -255 -670 -128 -336 -338 -889
-438 -1150 -39 -102 -108 -282 -152 -400 -45 -118 -85 -218 -88 -222 -4 -4
-44 93 -89 215 -75 204 -355 952 -623 1662 -60 160 -139 371 -176 470 -37 99
-115 308 -174 465 l-107 285 -57 3 c-31 2 -56 1 -56 -1z"/>
<path d="M7500 3795 l0 -1605 50 0 50 0 0 1605 0 1605 -50 0 -50 0 0 -1605z"/>
<path d="M11822 3798 l3 -1603 973 -3 972 -2 0 50 0 50 -920 0 -920 0 0 760 0
760 830 0 830 0 0 45 0 45 -830 0 -830 0 0 700 0 700 880 0 880 0 0 50 0 50
-935 0 -935 0 2 -1602z"/>
<path d="M1537 1713 c-4 -3 -7 -15 -7 -25 0 -29 37 -23 42 7 4 19 1 25 -12 25
-9 0 -20 -3 -23 -7z"/>
<path d="M2440 1705 c0 -10 10 -15 30 -15 26 0 30 -3 25 -22 -20 -86 -35 -175
-35 -204 0 -28 5 -36 26 -44 37 -14 71 -12 77 4 4 11 -3 16 -26 18 -42 4 -44
24 -14 166 l23 112 -53 0 c-40 0 -53 -4 -53 -15z"/>
<path d="M2952 1695 c-38 -32 -62 -101 -62 -177 0 -49 4 -63 25 -83 28 -29 43
-30 90 -11 81 34 123 250 55 286 -33 17 -77 11 -108 -15z m98 -29 c12 -32 -5
-141 -28 -180 -24 -40 -47 -54 -69 -40 -25 16 -24 145 2 194 21 41 32 50 63
50 15 0 26 -8 32 -24z"/>
<path d="M4983 1705 c-11 -8 -24 -26 -27 -40 -5 -19 -13 -25 -35 -25 -16 0
-31 -6 -35 -15 -4 -11 2 -15 24 -15 35 0 36 -5 15 -100 -19 -87 -19 -100 4
-100 16 0 22 15 37 98 l19 97 38 3 c46 4 45 26 -1 30 -33 3 -37 9 -26 36 4 10
18 16 39 16 20 0 35 6 39 15 7 20 -62 21 -91 0z"/>
<path d="M6620 1705 c0 -10 10 -15 29 -15 l28 0 -23 -115 c-13 -63 -21 -122
-17 -131 12 -31 96 -47 107 -19 4 11 -2 15 -23 15 -49 0 -51 14 -26 140 13 63
24 121 25 128 0 8 -16 12 -50 12 -38 0 -50 -4 -50 -15z"/>
<path d="M7426 1704 c-10 -26 -7 -34 14 -34 11 0 20 4 20 9 0 5 3 16 6 25 4
11 0 16 -14 16 -11 0 -23 -7 -26 -16z"/>
<path d="M8394 1711 c-47 -21 -104 -126 -104 -194 0 -43 31 -87 70 -98 44 -13
92 4 98 35 4 17 3 18 -19 2 -54 -37 -105 -4 -103 68 2 93 50 166 108 166 18 0
37 -5 44 -12 9 -9 13 -7 18 6 4 9 4 19 1 23 -11 10 -92 13 -113 4z"/>
<path d="M8565 1578 c-35 -177 -34 -163 -10 -163 16 0 21 12 32 65 17 83 31
118 54 130 51 28 62 -5 39 -109 -16 -72 -16 -83 -3 -88 8 -3 18 -2 23 3 13 15
42 172 35 195 -10 30 -51 42 -86 25 -32 -16 -34 -13 -20 47 8 34 7 37 -13 37
-21 0 -24 -11 -51 -142z"/>
<path d="M10685 1670 c-4 -28 -10 -50 -14 -48 -60 31 -59 31 -93 11 -42 -24
-68 -75 -68 -135 0 -70 43 -103 100 -75 20 10 29 11 27 4 -1 -7 7 -12 18 -12
18 0 23 17 50 153 l31 152 -22 0 c-19 0 -23 -7 -29 -50z m-41 -66 c50 -50 -26
-198 -80 -153 -12 10 -15 26 -12 68 4 44 10 59 32 78 32 27 39 28 60 7z"/>
<path d="M11847 1713 c-15 -15 -7 -43 13 -43 11 0 20 4 20 9 0 5 3 16 6 25 4
11 0 16 -13 16 -11 0 -23 -3 -26 -7z"/>
<path d="M1194 1688 c3 -13 10 -77 16 -143 7 -66 14 -123 17 -127 2 -5 13 -8
24 -8 15 0 35 32 93 150 69 140 73 150 52 150 -19 0 -31 -18 -76 -115 -29 -63
-56 -113 -59 -109 -3 3 -10 54 -16 112 -9 100 -11 107 -33 110 -19 3 -22 0
-18 -20z"/>
<path d="M5880 1696 c0 -9 12 -16 28 -18 l28 -3 -20 -115 -21 -115 -32 -3
c-21 -2 -33 -9 -33 -18 0 -21 155 -20 164 1 4 11 -2 15 -24 15 -23 0 -30 5
-30 19 0 16 17 113 36 199 3 17 11 22 33 22 16 0 31 6 35 15 4 13 -8 15 -79
15 -67 0 -85 -3 -85 -14z"/>
<path d="M11016 1578 c-14 -73 -26 -141 -26 -151 0 -16 9 -17 87 -15 58 2 88
7 91 16 3 9 -15 12 -68 12 -57 0 -71 3 -67 14 3 7 8 34 12 59 l7 46 66 3 c41
2 67 8 70 16 3 9 -14 12 -62 12 l-65 0 5 33 c10 57 10 57 78 57 47 0 65 4 70
15 4 13 -9 15 -83 15 l-88 0 -27 -132z"/>
<path d="M3468 1673 c-2 -22 -9 -29 -32 -33 -39 -7 -47 -30 -10 -30 26 0 27
-1 20 -47 -16 -103 -16 -118 -7 -132 12 -18 92 -21 98 -3 3 8 -6 12 -26 12
-18 0 -34 6 -36 13 -3 6 1 44 8 82 l13 70 43 3 c51 4 51 26 0 30 -33 3 -35 5
-31 32 4 25 1 30 -16 30 -15 0 -22 -7 -24 -27z"/>
<path d="M4210 1671 c0 -26 -4 -30 -32 -33 -38 -4 -51 -28 -15 -28 13 0 26 -2
29 -5 3 -3 -2 -40 -10 -82 l-15 -76 23 -19 c14 -12 35 -18 53 -16 41 4 48 28
9 28 -37 0 -42 13 -31 76 17 97 15 94 60 94 50 0 49 23 0 28 -30 3 -33 6 -29
33 4 25 1 29 -19 29 -19 0 -23 -5 -23 -29z"/>
<path d="M13538 1673 c-2 -22 -9 -29 -32 -33 -38 -6 -45 -28 -11 -32 14 -2 26
-5 27 -8 0 -3 -5 -38 -12 -79 -14 -73 -13 -74 10 -93 14 -12 35 -18 53 -16 41
4 48 28 8 28 -16 0 -33 5 -36 10 -4 6 -1 36 5 68 19 94 17 92 62 92 50 0 48
24 -3 28 -33 3 -35 5 -31 32 4 25 1 30 -16 30 -15 0 -22 -7 -24 -27z"/>
<path d="M1755 1639 c-35 -10 -55 -34 -55 -65 0 -25 21 -45 64 -59 39 -13 47
-48 15 -65 -20 -11 -53 -9 -91 5 -14 5 -18 2 -18 -13 0 -40 103 -39 148 1 36
34 25 93 -20 101 -38 7 -58 19 -58 37 0 28 41 44 78 31 24 -8 32 -7 36 4 4 9
-4 18 -20 24 -29 12 -38 11 -79 -1z"/>
<path d="M2229 1643 c-17 -3 -29 -12 -32 -24 -4 -16 -2 -19 11 -14 61 23 102
13 102 -26 0 -15 -7 -19 -35 -19 -82 0 -139 -51 -119 -107 12 -36 55 -49 94
-30 26 13 30 13 30 1 0 -24 39 -16 45 9 40 175 40 188 -11 207 -25 10 -37 10
-85 3z m71 -123 c0 -26 -33 -70 -55 -76 -50 -12 -75 41 -33 70 25 18 88 22 88
6z"/>
<path d="M3740 1637 c-18 -10 -30 -10 -42 -3 -11 7 -21 7 -26 1 -5 -6 -23 -76
-40 -157 l-30 -148 23 0 c18 0 24 7 29 38 13 73 13 73 44 55 24 -14 32 -14 57
-2 41 20 66 60 72 112 7 62 -2 91 -32 105 -31 14 -25 14 -55 -1z m40 -32 c17
-21 7 -101 -17 -134 -60 -80 -106 12 -57 111 20 39 53 49 74 23z"/>
<path d="M4440 1632 c-29 -14 -35 -23 -38 -55 -3 -37 -2 -38 47 -59 57 -23 63
-40 26 -64 -20 -13 -33 -14 -64 -6 -32 8 -41 7 -45 -5 -4 -8 4 -17 20 -23 71
-27 154 15 154 79 0 21 -45 59 -57 48 -3 -4 -14 -2 -24 4 -50 26 5 84 56 61
34 -16 35 -15 35 7 0 33 -57 40 -110 13z"/>
<path d="M5180 1633 c-44 -22 -70 -73 -70 -135 0 -39 4 -50 27 -68 50 -39 120
-12 149 57 45 107 -16 191 -106 146z m68 -25 c7 -7 12 -33 12 -59 0 -36 -6
-55 -26 -78 -49 -58 -90 -33 -82 51 4 40 11 57 32 75 30 26 46 29 64 11z"/>
<path d="M5473 1630 c-21 -12 -32 -15 -30 -7 1 6 -7 12 -18 12 -16 0 -22 -15
-41 -108 -17 -88 -19 -110 -8 -114 23 -9 30 4 44 79 18 102 65 148 121 118 16
-9 19 -7 19 9 0 35 -40 40 -87 11z"/>
<path d="M6190 1633 c-17 -12 -25 -13 -28 -5 -6 20 -32 13 -42 -10 -10 -24
-40 -170 -40 -194 0 -22 30 -16 40 9 5 12 14 49 21 81 7 37 20 68 35 82 25 26
32 28 53 15 15 -10 13 -28 -15 -171 -6 -26 -3 -30 14 -30 17 0 23 12 37 73 23
101 22 127 -5 149 -28 22 -39 23 -70 1z"/>
<path d="M6415 1631 c-49 -23 -75 -65 -75 -124 0 -65 25 -92 85 -92 35 0 50 5
61 19 22 31 17 36 -17 19 -23 -11 -39 -13 -58 -7 -22 8 -26 16 -29 54 -5 81
59 141 118 110 16 -9 22 -8 26 5 8 20 6 22 -36 29 -24 4 -48 0 -75 -13z"/>
<path d="M7165 1643 c-31 -8 -65 -44 -65 -69 0 -25 21 -45 64 -59 41 -13 48
-50 12 -67 -19 -8 -36 -8 -61 -1 -35 11 -45 8 -45 -13 0 -15 57 -26 97 -18 18
3 41 15 52 26 36 33 23 94 -21 102 -57 10 -72 31 -42 60 18 19 33 20 69 6 20
-8 27 -7 32 6 3 8 4 17 2 19 -8 7 -75 13 -94 8z"/>
<path d="M7880 1633 c-48 -25 -80 -76 -80 -127 0 -53 22 -84 63 -91 43 -8 101
7 105 27 3 13 -3 14 -42 5 -39 -9 -49 -8 -66 8 -11 10 -20 29 -20 42 0 22 3
23 80 23 l80 0 0 39 c0 72 -56 106 -120 74z m61 -23 c11 -6 19 -21 19 -35 0
-24 -3 -25 -55 -25 -61 0 -67 9 -30 45 27 28 37 30 66 15z"/>
<path d="M8850 1642 c-14 -5 -26 -15 -28 -24 -3 -15 2 -15 34 -6 46 12 84 -2
84 -32 0 -17 -7 -20 -40 -20 -92 0 -152 -60 -116 -115 22 -33 59 -42 91 -21
30 20 35 20 35 0 0 -9 7 -14 17 -12 13 2 23 23 35 73 22 93 22 119 -1 139 -22
20 -75 28 -111 18z m80 -117 c0 -4 -7 -19 -15 -35 -30 -58 -95 -65 -95 -10 0
17 7 33 18 39 18 11 92 15 92 6z"/>
<path d="M9141 1636 c-19 -10 -29 -11 -42 -3 -10 6 -21 8 -24 5 -4 -4 -17 -54
-30 -113 -18 -86 -20 -107 -9 -112 23 -9 31 5 44 74 7 38 19 80 26 95 17 32
51 45 70 26 12 -11 11 -27 -3 -100 -9 -48 -14 -90 -10 -94 19 -20 36 11 53
100 15 84 16 98 3 110 -22 22 -52 26 -78 12z"/>
<path d="M9354 1640 c-36 -14 -72 -67 -80 -116 -8 -55 6 -90 42 -106 22 -10
31 -9 56 5 l30 17 -7 -27 c-11 -47 -25 -56 -77 -51 -32 4 -49 1 -52 -8 -7 -19
4 -24 56 -24 56 0 91 19 106 58 17 42 54 243 47 250 -3 3 -14 1 -24 -5 -10 -6
-22 -8 -27 -3 -16 14 -48 19 -70 10z m54 -32 c17 -17 15 -84 -4 -124 -20 -43
-50 -53 -76 -26 -17 17 -19 28 -14 65 7 46 43 97 69 97 7 0 18 -5 25 -12z"/>
<path d="M9601 1633 c-44 -23 -70 -58 -77 -105 -10 -56 2 -86 40 -105 46 -22
126 -11 126 17 0 17 -4 18 -26 10 -14 -6 -34 -10 -45 -10 -25 0 -59 35 -59 60
0 18 7 20 80 20 75 0 80 1 85 23 18 72 -56 125 -124 90z m73 -35 c28 -40 21
-48 -44 -48 -59 0 -60 0 -49 24 11 23 41 44 66 45 6 1 19 -9 27 -21z"/>
<path d="M10082 1643 c-22 -4 -40 -28 -30 -38 3 -3 19 0 37 6 40 14 81 -1 81
-29 0 -16 -10 -20 -56 -25 -69 -7 -104 -35 -104 -83 0 -23 7 -38 22 -48 28
-20 45 -20 81 -2 23 13 27 13 27 0 0 -20 27 -18 38 4 16 30 35 148 29 174 -10
37 -59 53 -125 41z m78 -127 c0 -20 -37 -64 -61 -71 -41 -13 -65 37 -33 69 20
20 94 22 94 2z"/>
<path d="M10358 1634 c-16 -8 -28 -10 -28 -4 0 19 -30 10 -40 -12 -10 -24 -40
-170 -40 -194 0 -15 26 -19 34 -5 3 5 13 42 21 82 21 98 62 143 95 104 10 -12
10 -31 -4 -98 -20 -101 -20 -97 3 -97 21 0 37 52 48 156 5 46 3 53 -18 68 -28
19 -36 19 -71 0z"/>
<path d="M11340 1633 c-17 -12 -25 -13 -28 -5 -4 14 -28 16 -36 3 -6 -9 -46
-195 -46 -212 0 -5 9 -9 19 -9 16 0 22 11 31 58 6 31 16 72 22 90 19 62 88 80
88 23 0 -14 -7 -53 -15 -86 -19 -79 -19 -85 5 -85 21 0 21 0 44 113 16 80 13
101 -20 116 -32 14 -35 14 -64 -6z"/>
<path d="M12116 1635 c-23 -12 -32 -13 -43 -3 -12 10 -18 9 -27 -4 -14 -19
-51 -206 -43 -215 17 -16 36 11 47 64 6 32 17 73 25 91 18 38 59 58 91 43 18
-8 24 -6 28 6 8 19 7 20 -24 27 -14 4 -37 0 -54 -9z"/>
<path d="M12304 1640 c-84 -34 -111 -192 -37 -221 81 -31 167 66 148 168 -9
48 -61 74 -111 53z m60 -36 c19 -18 20 -44 5 -97 -17 -63 -88 -88 -104 -36
-11 33 6 101 31 126 27 27 46 29 68 7z"/>
<path d="M12578 1636 c-18 -9 -29 -11 -36 -4 -23 23 -39 -2 -56 -89 -10 -48
-20 -99 -23 -111 -5 -20 -2 -23 18 -20 21 3 25 12 40 88 12 62 23 89 39 102
54 44 69 14 48 -96 -16 -80 -12 -104 14 -93 20 7 52 181 38 207 -6 11 -15 20
-20 20 -4 0 -14 2 -22 5 -7 3 -25 -1 -40 -9z"/>
<path d="M12780 1640 c-8 -5 -23 -7 -32 -4 -10 3 -18 3 -18 1 0 -3 -9 -49 -20
-102 -24 -116 -24 -125 -6 -125 14 0 22 28 42 142 8 50 28 77 45 61 10 -10 10
-30 0 -98 -15 -98 -15 -100 1 -100 7 0 19 36 29 89 18 92 39 130 60 109 8 -8
7 -32 -5 -88 -20 -94 -20 -115 -2 -115 13 0 46 135 46 192 0 33 -25 49 -58 37
-14 -6 -30 -5 -42 1 -23 12 -21 12 -40 0z"/>
<path d="M13040 1633 c-48 -25 -80 -76 -80 -127 0 -53 22 -84 63 -91 43 -8
101 7 105 27 3 13 -3 14 -42 5 -39 -9 -49 -8 -66 8 -11 10 -20 29 -20 42 0 22
3 23 80 23 l80 0 0 43 c0 71 -55 103 -120 70z m61 -23 c11 -6 19 -21 19 -35 0
-24 -3 -25 -55 -25 -61 0 -67 9 -30 45 27 28 37 30 66 15z"/>
<path d="M13308 1636 c-17 -9 -30 -11 -34 -5 -3 6 -13 9 -22 7 -23 -4 -66
-217 -46 -225 23 -9 31 5 44 74 14 78 32 118 55 127 49 18 58 -11 35 -113 -16
-72 -16 -83 -3 -88 22 -9 29 5 48 98 14 67 15 90 6 107 -6 12 -16 22 -21 22
-4 0 -14 2 -22 5 -7 3 -25 -1 -40 -9z"/>
<path d="M13772 1635 c-35 -15 -57 -57 -43 -82 5 -9 28 -25 52 -37 53 -26 58
-40 24 -62 -22 -15 -34 -16 -66 -7 -30 8 -39 7 -43 -4 -4 -8 4 -17 20 -23 77
-30 169 27 149 91 -7 21 -41 43 -54 35 -5 -3 -19 2 -32 12 l-22 19 22 22 c22
22 42 24 84 6 13 -5 17 -2 17 13 0 32 -53 41 -108 17z"/>
<path d="M1466 1625 c-4 -11 1 -15 19 -15 32 0 32 -5 0 -147 -4 -19 -12 -23
-40 -23 -24 0 -35 -5 -35 -15 0 -12 17 -15 89 -15 70 0 90 3 95 15 4 12 -3 15
-29 15 -32 0 -35 3 -35 28 1 15 7 56 15 92 8 36 14 68 15 73 0 4 -20 7 -44 7
-30 0 -46 -5 -50 -15z"/>
<path d="M1941 1618 c-16 -43 -34 -155 -28 -172 12 -30 51 -40 86 -23 26 13
31 13 31 1 0 -8 9 -14 19 -14 20 0 22 6 52 158 6 34 9 65 6 69 -17 16 -36 -11
-47 -64 -21 -109 -60 -157 -97 -120 -14 14 -14 23 1 87 9 40 16 79 16 86 0 23
-30 16 -39 -8z"/>
<path d="M3177 1633 c-3 -5 -12 -44 -22 -89 -13 -62 -15 -86 -6 -102 15 -29
46 -36 80 -19 25 13 31 13 35 1 8 -22 35 -16 41 9 37 162 42 199 28 204 -22 8
-29 -5 -47 -86 -17 -78 -37 -111 -67 -111 -33 0 -37 28 -19 111 10 43 15 81
12 84 -8 7 -30 6 -35 -2z"/>
<path d="M3906 1628 c-3 -7 -12 -47 -21 -90 -13 -58 -14 -81 -6 -97 16 -29 56
-37 86 -17 29 19 36 20 33 4 -2 -7 6 -13 17 -13 16 0 22 15 41 108 17 88 19
110 8 114 -23 9 -30 -4 -43 -76 -14 -76 -41 -121 -72 -121 -29 0 -33 24 -18
103 7 40 14 76 14 82 0 15 -35 18 -39 3z"/>
<path d="M6851 1618 c-16 -43 -34 -155 -28 -172 12 -30 51 -40 86 -23 26 13
31 13 31 1 0 -8 9 -14 19 -14 15 0 22 11 29 48 39 183 40 191 8 179 -8 -3 -19
-31 -26 -64 -21 -109 -60 -157 -97 -120 -14 14 -14 23 1 87 9 40 16 79 16 86
0 23 -30 16 -39 -8z"/>
<path d="M7367 1633 c-13 -12 -7 -23 13 -23 24 0 25 -18 7 -105 -12 -57 -15
-60 -45 -65 -62 -9 -33 -25 52 -28 68 -2 85 0 89 13 5 12 -1 15 -28 15 -40 0
-40 -2 -20 103 8 43 15 83 15 88 0 10 -73 12 -83 2z"/>
<path d="M7578 1635 c-4 -5 3 -60 27 -193 5 -27 10 -33 28 -30 29 4 154 216
132 224 -23 9 -33 -3 -76 -88 -22 -44 -42 -78 -45 -75 -3 3 -10 40 -17 83 -9
57 -16 80 -28 82 -8 1 -17 0 -21 -3z"/>
<path d="M11506 1632 c-3 -5 3 -56 12 -113 17 -98 19 -104 42 -104 20 0 34 18
86 107 34 59 59 109 56 112 -20 20 -41 -1 -81 -81 -47 -95 -53 -95 -65 -8 -11
77 -17 95 -31 95 -8 0 -16 -4 -19 -8z"/>
<path d="M11780 1625 c-11 -13 -8 -15 14 -15 30 0 31 -5 13 -100 -12 -63 -13
-65 -45 -70 -62 -9 -33 -25 52 -28 68 -2 85 0 89 13 5 12 -1 15 -28 15 -41 0
-42 8 -20 110 8 36 14 71 15 78 0 18 -75 16 -90 -3z"/>
</g>
</svg>
